<svg width="567" height="70" viewBox="0 0 567 70" fill="none" xmlns="http://www.w3.org/2000/svg">
<path d="M18.224 52.448C14.9387 52.448 11.9947 51.9147 9.392 50.848C6.78933 49.7813 4.69867 48.2027 3.12 46.112C1.584 44.0213 0.773334 41.504 0.688 38.56H12.336C12.5067 40.224 13.0827 41.504 14.064 42.4C15.0453 43.2533 16.3253 43.68 17.904 43.68C19.5253 43.68 20.8053 43.3173 21.744 42.592C22.6827 41.824 23.152 40.7787 23.152 39.456C23.152 38.3467 22.768 37.4293 22 36.704C21.2747 35.9787 20.3573 35.3813 19.248 34.912C18.1813 34.4427 16.6453 33.9093 14.64 33.312C11.7387 32.416 9.37067 31.52 7.536 30.624C5.70133 29.728 4.12267 28.4053 2.8 26.656C1.47733 24.9067 0.816 22.624 0.816 19.808C0.816 15.6267 2.33067 12.3627 5.36 10.016C8.38933 7.62667 12.336 6.432 17.2 6.432C22.1493 6.432 26.1387 7.62667 29.168 10.016C32.1973 12.3627 33.8187 15.648 34.032 19.872H22.192C22.1067 18.4213 21.5733 17.2907 20.592 16.48C19.6107 15.6267 18.352 15.2 16.816 15.2C15.4933 15.2 14.4267 15.5627 13.616 16.288C12.8053 16.9707 12.4 17.9733 12.4 19.296C12.4 20.7467 13.0827 21.8773 14.448 22.688C15.8133 23.4987 17.9467 24.3733 20.848 25.312C23.7493 26.2933 26.096 27.232 27.888 28.128C29.7227 29.024 31.3013 30.3253 32.624 32.032C33.9467 33.7387 34.608 35.936 34.608 38.624C34.608 41.184 33.9467 43.5093 32.624 45.6C31.344 47.6907 29.4667 49.3547 26.992 50.592C24.5173 51.8293 21.5947 52.448 18.224 52.448ZM76.007 33.568C76.007 34.592 75.943 35.6587 75.815 36.768H51.047C51.2177 38.9867 51.9217 40.6933 53.159 41.888C54.439 43.04 55.9963 43.616 57.831 43.616C60.5617 43.616 62.4603 42.464 63.527 40.16H75.175C74.5777 42.5067 73.4897 44.6187 71.911 46.496C70.375 48.3733 68.4337 49.8453 66.087 50.912C63.7403 51.9787 61.1163 52.512 58.215 52.512C54.7163 52.512 51.6017 51.7653 48.871 50.272C46.1403 48.7787 44.007 46.6453 42.471 43.872C40.935 41.0987 40.167 37.856 40.167 34.144C40.167 30.432 40.9137 27.1893 42.407 24.416C43.943 21.6427 46.0763 19.5093 48.807 18.016C51.5377 16.5227 54.6737 15.776 58.215 15.776C61.671 15.776 64.743 16.5013 67.431 17.952C70.119 19.4027 72.2097 21.472 73.703 24.16C75.239 26.848 76.007 29.984 76.007 33.568ZM64.807 30.688C64.807 28.8107 64.167 27.3173 62.887 26.208C61.607 25.0987 60.007 24.544 58.087 24.544C56.2523 24.544 54.695 25.0773 53.415 26.144C52.1777 27.2107 51.4097 28.7253 51.111 30.688H64.807ZM93.7245 22.24C95.0045 20.2773 96.6045 18.7413 98.5245 17.632C100.445 16.48 102.578 15.904 104.925 15.904V27.488H101.917C99.1858 27.488 97.1378 28.0853 95.7725 29.28C94.4072 30.432 93.7245 32.48 93.7245 35.424V52H82.7805V16.288H93.7245V22.24ZM127.22 41.76L134.964 16.288H146.612L133.94 52H120.436L107.764 16.288H119.476L127.22 41.76ZM157.722 12.576C155.802 12.576 154.223 12.0213 152.986 10.912C151.791 9.76 151.194 8.352 151.194 6.688C151.194 4.98133 151.791 3.57333 152.986 2.464C154.223 1.312 155.802 0.735996 157.722 0.735996C159.599 0.735996 161.135 1.312 162.33 2.464C163.567 3.57333 164.186 4.98133 164.186 6.688C164.186 8.352 163.567 9.76 162.33 10.912C161.135 12.0213 159.599 12.576 157.722 12.576ZM163.162 16.288V52H152.218V16.288H163.162ZM169.917 34.144C169.917 30.432 170.664 27.1893 172.157 24.416C173.693 21.6427 175.805 19.5093 178.493 18.016C181.224 16.5227 184.338 15.776 187.837 15.776C192.317 15.776 196.05 16.9493 199.037 19.296C202.066 21.6427 204.05 24.9493 204.989 29.216H193.341C192.36 26.4853 190.461 25.12 187.645 25.12C185.64 25.12 184.04 25.9093 182.845 27.488C181.65 29.024 181.053 31.2427 181.053 34.144C181.053 37.0453 181.65 39.2853 182.845 40.864C184.04 42.4 185.64 43.168 187.645 43.168C190.461 43.168 192.36 41.8027 193.341 39.072H204.989C204.05 43.2533 202.066 46.5387 199.037 48.928C196.008 51.3173 192.274 52.512 187.837 52.512C184.338 52.512 181.224 51.7653 178.493 50.272C175.805 48.7787 173.693 46.6453 172.157 43.872C170.664 41.0987 169.917 37.856 169.917 34.144ZM245.507 33.568C245.507 34.592 245.443 35.6587 245.315 36.768H220.547C220.718 38.9867 221.422 40.6933 222.659 41.888C223.939 43.04 225.496 43.616 227.331 43.616C230.062 43.616 231.96 42.464 233.027 40.16H244.675C244.078 42.5067 242.99 44.6187 241.411 46.496C239.875 48.3733 237.934 49.8453 235.587 50.912C233.24 51.9787 230.616 52.512 227.715 52.512C224.216 52.512 221.102 51.7653 218.371 50.272C215.64 48.7787 213.507 46.6453 211.971 43.872C210.435 41.0987 209.667 37.856 209.667 34.144C209.667 30.432 210.414 27.1893 211.907 24.416C213.443 21.6427 215.576 19.5093 218.307 18.016C221.038 16.5227 224.174 15.776 227.715 15.776C231.171 15.776 234.243 16.5013 236.931 17.952C239.619 19.4027 241.71 21.472 243.203 24.16C244.739 26.848 245.507 29.984 245.507 33.568ZM234.307 30.688C234.307 28.8107 233.667 27.3173 232.387 26.208C231.107 25.0987 229.507 24.544 227.587 24.544C225.752 24.544 224.195 25.0773 222.915 26.144C221.678 27.2107 220.91 28.7253 220.611 30.688H234.307ZM317.723 7.072V52H306.779V25.056L296.731 52H287.899L277.787 24.992V52H266.843V7.072H279.771L292.379 38.176L304.859 7.072H317.723ZM324.417 34.08C324.417 30.4107 325.1 27.1893 326.465 24.416C327.873 21.6427 329.772 19.5093 332.161 18.016C334.55 16.5227 337.217 15.776 340.161 15.776C342.678 15.776 344.876 16.288 346.753 17.312C348.673 18.336 350.145 19.68 351.169 21.344V16.288H362.113V52H351.169V46.944C350.102 48.608 348.609 49.952 346.689 50.976C344.812 52 342.614 52.512 340.097 52.512C337.196 52.512 334.55 51.7653 332.161 50.272C329.772 48.736 327.873 46.5813 326.465 43.808C325.1 40.992 324.417 37.7493 324.417 34.08ZM351.169 34.144C351.169 31.4133 350.401 29.2587 348.865 27.68C347.372 26.1013 345.537 25.312 343.361 25.312C341.185 25.312 339.329 26.1013 337.793 27.68C336.3 29.216 335.553 31.3493 335.553 34.08C335.553 36.8107 336.3 38.9867 337.793 40.608C339.329 42.1867 341.185 42.976 343.361 42.976C345.537 42.976 347.372 42.1867 348.865 40.608C350.401 39.0293 351.169 36.8747 351.169 34.144ZM392.791 15.904C396.972 15.904 400.3 17.2693 402.775 20C405.292 22.688 406.551 26.4 406.551 31.136V52H395.671V32.608C395.671 30.2187 395.052 28.3627 393.815 27.04C392.577 25.7173 390.913 25.056 388.823 25.056C386.732 25.056 385.068 25.7173 383.831 27.04C382.593 28.3627 381.975 30.2187 381.975 32.608V52H371.031V16.288H381.975V21.024C383.084 19.4453 384.577 18.208 386.455 17.312C388.332 16.3733 390.444 15.904 392.791 15.904ZM412.98 34.08C412.98 30.4107 413.662 27.1893 415.028 24.416C416.436 21.6427 418.334 19.5093 420.724 18.016C423.113 16.5227 425.78 15.776 428.724 15.776C431.241 15.776 433.438 16.288 435.316 17.312C437.236 18.336 438.708 19.68 439.732 21.344V16.288H450.676V52H439.732V46.944C438.665 48.608 437.172 49.952 435.252 50.976C433.374 52 431.177 52.512 428.66 52.512C425.758 52.512 423.113 51.7653 420.724 50.272C418.334 48.736 416.436 46.5813 415.028 43.808C413.662 40.992 412.98 37.7493 412.98 34.08ZM439.732 34.144C439.732 31.4133 438.964 29.2587 437.428 27.68C435.934 26.1013 434.1 25.312 431.924 25.312C429.748 25.312 427.892 26.1013 426.356 27.68C424.862 29.216 424.116 31.3493 424.116 34.08C424.116 36.8107 424.862 38.9867 426.356 40.608C427.892 42.1867 429.748 42.976 431.924 42.976C434.1 42.976 435.934 42.1867 437.428 40.608C438.964 39.0293 439.732 36.8747 439.732 34.144ZM473.161 15.776C475.678 15.776 477.876 16.288 479.753 17.312C481.673 18.336 483.145 19.68 484.169 21.344V16.288H495.113V51.936C495.113 55.2213 494.452 58.1867 493.129 60.832C491.849 63.52 489.865 65.6533 487.177 67.232C484.532 68.8107 481.225 69.6 477.257 69.6C471.966 69.6 467.678 68.3413 464.393 65.824C461.108 63.3493 459.23 59.9787 458.761 55.712H469.577C469.918 57.0773 470.729 58.144 472.009 58.912C473.289 59.7227 474.868 60.128 476.745 60.128C479.006 60.128 480.798 59.4667 482.121 58.144C483.486 56.864 484.169 54.7947 484.169 51.936V46.88C483.102 48.544 481.63 49.9093 479.753 50.976C477.876 52 475.678 52.512 473.161 52.512C470.217 52.512 467.55 51.7653 465.161 50.272C462.772 48.736 460.873 46.5813 459.465 43.808C458.1 40.992 457.417 37.7493 457.417 34.08C457.417 30.4107 458.1 27.1893 459.465 24.416C460.873 21.6427 462.772 19.5093 465.161 18.016C467.55 16.5227 470.217 15.776 473.161 15.776ZM484.169 34.144C484.169 31.4133 483.401 29.2587 481.865 27.68C480.372 26.1013 478.537 25.312 476.361 25.312C474.185 25.312 472.329 26.1013 470.793 27.68C469.3 29.216 468.553 31.3493 468.553 34.08C468.553 36.8107 469.3 38.9867 470.793 40.608C472.329 42.1867 474.185 42.976 476.361 42.976C478.537 42.976 480.372 42.1867 481.865 40.608C483.401 39.0293 484.169 36.8747 484.169 34.144ZM537.694 33.568C537.694 34.592 537.631 35.6587 537.503 36.768H512.735C512.905 38.9867 513.609 40.6933 514.847 41.888C516.127 43.04 517.684 43.616 519.519 43.616C522.249 43.616 524.148 42.464 525.215 40.16H536.863C536.265 42.5067 535.177 44.6187 533.599 46.496C532.063 48.3733 530.121 49.8453 527.775 50.912C525.428 51.9787 522.804 52.512 519.903 52.512C516.404 52.512 513.289 51.7653 510.559 50.272C507.828 48.7787 505.695 46.6453 504.159 43.872C502.623 41.0987 501.855 37.856 501.855 34.144C501.855 30.432 502.601 27.1893 504.095 24.416C505.631 21.6427 507.764 19.5093 510.495 18.016C513.225 16.5227 516.361 15.776 519.903 15.776C523.359 15.776 526.431 16.5013 529.119 17.952C531.807 19.4027 533.897 21.472 535.391 24.16C536.927 26.848 537.694 29.984 537.694 33.568ZM526.495 30.688C526.495 28.8107 525.855 27.3173 524.575 26.208C523.295 25.0987 521.695 24.544 519.775 24.544C517.94 24.544 516.383 25.0773 515.103 26.144C513.865 27.2107 513.097 28.7253 512.799 30.688H526.495ZM555.412 22.24C556.692 20.2773 558.292 18.7413 560.212 17.632C562.132 16.48 564.265 15.904 566.612 15.904V27.488H563.604C560.873 27.488 558.825 28.0853 557.46 29.28C556.095 30.432 555.412 32.48 555.412 35.424V52H544.468V16.288H555.412V22.24Z" fill="#14142B"/>
</svg>
