<svg width="100%" height="100%" viewBox="0 0 748 113" fill="none" xmlns="http://www.w3.org/2000/svg">
<path d="M54.522 56.5L1.95001 35.4067C1.95001 35.4067 7.44901 45.991 7.44901 56.5377C7.44901 67.0843 1.95001 77.5933 1.95001 77.5933L54.522 56.5ZM115.05 35.4067L62.478 56.5L115.05 77.5933C115.05 77.5933 109.551 67.0843 109.551 56.5377C109.551 45.991 115.05 35.4067 115.05 35.4067ZM80.34 1.88333C80.34 1.88333 69.381 7.19433 58.461 7.19433C47.541 7.19433 36.66 1.88333 36.66 1.88333L58.5 52.658L80.34 1.88333ZM36.66 111.117C36.66 111.117 47.541 105.806 58.461 105.806C69.381 105.806 80.34 111.117 80.34 111.117L58.5 60.342L36.66 111.117Z" fill="white"/>
<path d="M22.4251 91.417C30.1471 98.875 33.9691 110.062 33.9691 110.062L55.6921 59.2497L3.08105 80.1923C3.08105 80.1923 14.7031 83.9213 22.4251 91.417ZM94.6531 21.6583C86.9311 14.2003 83.0701 2.97568 83.0701 2.97568L61.3471 53.788L113.958 32.8077C113.919 32.8077 102.336 29.1163 94.6531 21.6583ZM33.9691 2.97568C33.9691 2.97568 30.1081 14.2003 22.3861 21.6583C14.6641 29.1163 3.08105 32.8077 3.08105 32.8077L55.6921 53.788L33.9691 2.97568ZM83.0311 110.024C83.0311 110.024 86.8531 98.8373 94.5751 91.3793C102.297 83.9213 113.919 80.1547 113.919 80.1547L61.3081 59.1743L83.0311 110.024Z" fill="white"/>
<path d="M176.224 79.448C172.939 79.448 169.995 78.9147 167.392 77.848C164.789 76.7813 162.699 75.2027 161.12 73.112C159.584 71.0213 158.773 68.504 158.688 65.56H170.336C170.507 67.224 171.083 68.504 172.064 69.4C173.045 70.2533 174.325 70.68 175.904 70.68C177.525 70.68 178.805 70.3173 179.744 69.592C180.683 68.824 181.152 67.7787 181.152 66.456C181.152 65.3467 180.768 64.4293 180 63.704C179.275 62.9787 178.357 62.3813 177.248 61.912C176.181 61.4427 174.645 60.9093 172.64 60.312C169.739 59.416 167.371 58.52 165.536 57.624C163.701 56.728 162.123 55.4053 160.8 53.656C159.477 51.9067 158.816 49.624 158.816 46.808C158.816 42.6267 160.331 39.3627 163.36 37.016C166.389 34.6267 170.336 33.432 175.2 33.432C180.149 33.432 184.139 34.6267 187.168 37.016C190.197 39.3627 191.819 42.648 192.032 46.872H180.192C180.107 45.4213 179.573 44.2907 178.592 43.48C177.611 42.6267 176.352 42.2 174.816 42.2C173.493 42.2 172.427 42.5627 171.616 43.288C170.805 43.9707 170.4 44.9733 170.4 46.296C170.4 47.7467 171.083 48.8773 172.448 49.688C173.813 50.4987 175.947 51.3733 178.848 52.312C181.749 53.2933 184.096 54.232 185.888 55.128C187.723 56.024 189.301 57.3253 190.624 59.032C191.947 60.7387 192.608 62.936 192.608 65.624C192.608 68.184 191.947 70.5093 190.624 72.6C189.344 74.6907 187.467 76.3547 184.992 77.592C182.517 78.8293 179.595 79.448 176.224 79.448ZM234.007 60.568C234.007 61.592 233.943 62.6587 233.815 63.768H209.047C209.218 65.9867 209.922 67.6933 211.159 68.888C212.439 70.04 213.996 70.616 215.831 70.616C218.562 70.616 220.46 69.464 221.527 67.16H233.175C232.578 69.5067 231.49 71.6187 229.911 73.496C228.375 75.3733 226.434 76.8453 224.087 77.912C221.74 78.9787 219.116 79.512 216.215 79.512C212.716 79.512 209.602 78.7653 206.871 77.272C204.14 75.7787 202.007 73.6453 200.471 70.872C198.935 68.0987 198.167 64.856 198.167 61.144C198.167 57.432 198.914 54.1893 200.407 51.416C201.943 48.6427 204.076 46.5093 206.807 45.016C209.538 43.5227 212.674 42.776 216.215 42.776C219.671 42.776 222.743 43.5013 225.431 44.952C228.119 46.4027 230.21 48.472 231.703 51.16C233.239 53.848 234.007 56.984 234.007 60.568ZM222.807 57.688C222.807 55.8107 222.167 54.3173 220.887 53.208C219.607 52.0987 218.007 51.544 216.087 51.544C214.252 51.544 212.695 52.0773 211.415 53.144C210.178 54.2107 209.41 55.7253 209.111 57.688H222.807ZM251.725 49.24C253.005 47.2773 254.605 45.7413 256.525 44.632C258.445 43.48 260.578 42.904 262.925 42.904V54.488H259.917C257.186 54.488 255.138 55.0853 253.773 56.28C252.407 57.432 251.725 59.48 251.725 62.424V79H240.781V43.288H251.725V49.24ZM285.22 68.76L292.964 43.288H304.612L291.94 79H278.436L265.764 43.288H277.476L285.22 68.76ZM315.722 39.576C313.802 39.576 312.223 39.0213 310.986 37.912C309.791 36.76 309.194 35.352 309.194 33.688C309.194 31.9813 309.791 30.5733 310.986 29.464C312.223 28.312 313.802 27.736 315.722 27.736C317.599 27.736 319.135 28.312 320.33 29.464C321.567 30.5733 322.186 31.9813 322.186 33.688C322.186 35.352 321.567 36.76 320.33 37.912C319.135 39.0213 317.599 39.576 315.722 39.576ZM321.162 43.288V79H310.218V43.288H321.162ZM327.917 61.144C327.917 57.432 328.664 54.1893 330.157 51.416C331.693 48.6427 333.805 46.5093 336.493 45.016C339.224 43.5227 342.338 42.776 345.837 42.776C350.317 42.776 354.05 43.9493 357.037 46.296C360.066 48.6427 362.05 51.9493 362.989 56.216H351.341C350.36 53.4853 348.461 52.12 345.645 52.12C343.64 52.12 342.04 52.9093 340.845 54.488C339.65 56.024 339.053 58.2427 339.053 61.144C339.053 64.0453 339.65 66.2853 340.845 67.864C342.04 69.4 343.64 70.168 345.645 70.168C348.461 70.168 350.36 68.8027 351.341 66.072H362.989C362.05 70.2533 360.066 73.5387 357.037 75.928C354.008 78.3173 350.274 79.512 345.837 79.512C342.338 79.512 339.224 78.7653 336.493 77.272C333.805 75.7787 331.693 73.6453 330.157 70.872C328.664 68.0987 327.917 64.856 327.917 61.144ZM403.507 60.568C403.507 61.592 403.443 62.6587 403.315 63.768H378.547C378.718 65.9867 379.422 67.6933 380.659 68.888C381.939 70.04 383.496 70.616 385.331 70.616C388.062 70.616 389.96 69.464 391.027 67.16H402.675C402.078 69.5067 400.99 71.6187 399.411 73.496C397.875 75.3733 395.934 76.8453 393.587 77.912C391.24 78.9787 388.616 79.512 385.715 79.512C382.216 79.512 379.102 78.7653 376.371 77.272C373.64 75.7787 371.507 73.6453 369.971 70.872C368.435 68.0987 367.667 64.856 367.667 61.144C367.667 57.432 368.414 54.1893 369.907 51.416C371.443 48.6427 373.576 46.5093 376.307 45.016C379.038 43.5227 382.174 42.776 385.715 42.776C389.171 42.776 392.243 43.5013 394.931 44.952C397.619 46.4027 399.71 48.472 401.203 51.16C402.739 53.848 403.507 56.984 403.507 60.568ZM392.307 57.688C392.307 55.8107 391.667 54.3173 390.387 53.208C389.107 52.0987 387.507 51.544 385.587 51.544C383.752 51.544 382.195 52.0773 380.915 53.144C379.678 54.2107 378.91 55.7253 378.611 57.688H392.307ZM475.723 34.072V79H464.779V52.056L454.731 79H445.899L435.787 51.992V79H424.843V34.072H437.771L450.379 65.176L462.859 34.072H475.723ZM482.417 61.08C482.417 57.4107 483.1 54.1893 484.465 51.416C485.873 48.6427 487.772 46.5093 490.161 45.016C492.55 43.5227 495.217 42.776 498.161 42.776C500.678 42.776 502.876 43.288 504.753 44.312C506.673 45.336 508.145 46.68 509.169 48.344V43.288H520.113V79H509.169V73.944C508.102 75.608 506.609 76.952 504.689 77.976C502.812 79 500.614 79.512 498.097 79.512C495.196 79.512 492.55 78.7653 490.161 77.272C487.772 75.736 485.873 73.5813 484.465 70.808C483.1 67.992 482.417 64.7493 482.417 61.08ZM509.169 61.144C509.169 58.4133 508.401 56.2587 506.865 54.68C505.372 53.1013 503.537 52.312 501.361 52.312C499.185 52.312 497.329 53.1013 495.793 54.68C494.3 56.216 493.553 58.3493 493.553 61.08C493.553 63.8107 494.3 65.9867 495.793 67.608C497.329 69.1867 499.185 69.976 501.361 69.976C503.537 69.976 505.372 69.1867 506.865 67.608C508.401 66.0293 509.169 63.8747 509.169 61.144ZM550.791 42.904C554.972 42.904 558.3 44.2693 560.775 47C563.292 49.688 564.551 53.4 564.551 58.136V79H553.671V59.608C553.671 57.2187 553.052 55.3627 551.815 54.04C550.577 52.7173 548.913 52.056 546.823 52.056C544.732 52.056 543.068 52.7173 541.831 54.04C540.593 55.3627 539.975 57.2187 539.975 59.608V79H529.031V43.288H539.975V48.024C541.084 46.4453 542.577 45.208 544.455 44.312C546.332 43.3733 548.444 42.904 550.791 42.904ZM570.98 61.08C570.98 57.4107 571.662 54.1893 573.028 51.416C574.436 48.6427 576.334 46.5093 578.724 45.016C581.113 43.5227 583.78 42.776 586.724 42.776C589.241 42.776 591.438 43.288 593.316 44.312C595.236 45.336 596.708 46.68 597.732 48.344V43.288H608.676V79H597.732V73.944C596.665 75.608 595.172 76.952 593.252 77.976C591.374 79 589.177 79.512 586.66 79.512C583.758 79.512 581.113 78.7653 578.724 77.272C576.334 75.736 574.436 73.5813 573.028 70.808C571.662 67.992 570.98 64.7493 570.98 61.08ZM597.732 61.144C597.732 58.4133 596.964 56.2587 595.428 54.68C593.934 53.1013 592.1 52.312 589.924 52.312C587.748 52.312 585.892 53.1013 584.356 54.68C582.862 56.216 582.116 58.3493 582.116 61.08C582.116 63.8107 582.862 65.9867 584.356 67.608C585.892 69.1867 587.748 69.976 589.924 69.976C592.1 69.976 593.934 69.1867 595.428 67.608C596.964 66.0293 597.732 63.8747 597.732 61.144ZM631.161 42.776C633.678 42.776 635.876 43.288 637.753 44.312C639.673 45.336 641.145 46.68 642.169 48.344V43.288H653.113V78.936C653.113 82.2213 652.452 85.1867 651.129 87.832C649.849 90.52 647.865 92.6533 645.177 94.232C642.532 95.8107 639.225 96.6 635.257 96.6C629.966 96.6 625.678 95.3413 622.393 92.824C619.108 90.3493 617.23 86.9787 616.761 82.712H627.577C627.918 84.0773 628.729 85.144 630.009 85.912C631.289 86.7227 632.868 87.128 634.745 87.128C637.006 87.128 638.798 86.4667 640.121 85.144C641.486 83.864 642.169 81.7947 642.169 78.936V73.88C641.102 75.544 639.63 76.9093 637.753 77.976C635.876 79 633.678 79.512 631.161 79.512C628.217 79.512 625.55 78.7653 623.161 77.272C620.772 75.736 618.873 73.5813 617.465 70.808C616.1 67.992 615.417 64.7493 615.417 61.08C615.417 57.4107 616.1 54.1893 617.465 51.416C618.873 48.6427 620.772 46.5093 623.161 45.016C625.55 43.5227 628.217 42.776 631.161 42.776ZM642.169 61.144C642.169 58.4133 641.401 56.2587 639.865 54.68C638.372 53.1013 636.537 52.312 634.361 52.312C632.185 52.312 630.329 53.1013 628.793 54.68C627.3 56.216 626.553 58.3493 626.553 61.08C626.553 63.8107 627.3 65.9867 628.793 67.608C630.329 69.1867 632.185 69.976 634.361 69.976C636.537 69.976 638.372 69.1867 639.865 67.608C641.401 66.0293 642.169 63.8747 642.169 61.144ZM695.694 60.568C695.694 61.592 695.631 62.6587 695.503 63.768H670.735C670.905 65.9867 671.609 67.6933 672.847 68.888C674.127 70.04 675.684 70.616 677.519 70.616C680.249 70.616 682.148 69.464 683.215 67.16H694.863C694.265 69.5067 693.177 71.6187 691.599 73.496C690.063 75.3733 688.121 76.8453 685.775 77.912C683.428 78.9787 680.804 79.512 677.903 79.512C674.404 79.512 671.289 78.7653 668.559 77.272C665.828 75.7787 663.695 73.6453 662.159 70.872C660.623 68.0987 659.855 64.856 659.855 61.144C659.855 57.432 660.601 54.1893 662.095 51.416C663.631 48.6427 665.764 46.5093 668.495 45.016C671.225 43.5227 674.361 42.776 677.903 42.776C681.359 42.776 684.431 43.5013 687.119 44.952C689.807 46.4027 691.897 48.472 693.391 51.16C694.927 53.848 695.694 56.984 695.694 60.568ZM684.495 57.688C684.495 55.8107 683.855 54.3173 682.575 53.208C681.295 52.0987 679.695 51.544 677.775 51.544C675.94 51.544 674.383 52.0773 673.103 53.144C671.865 54.2107 671.097 55.7253 670.799 57.688H684.495ZM713.412 49.24C714.692 47.2773 716.292 45.7413 718.212 44.632C720.132 43.48 722.265 42.904 724.612 42.904V54.488H721.604C718.873 54.488 716.825 55.0853 715.46 56.28C714.095 57.432 713.412 59.48 713.412 62.424V79H702.468V43.288H713.412V49.24Z" fill="#14142B"/>
</svg>
