<svg width="95" height="95" viewBox="0 0 95 95" fill="none" xmlns="http://www.w3.org/2000/svg">
<path d="M84.178 83.1171H10.8182C9.404 83.1171 8.09728 82.3626 7.39022 81.1379C6.68315 79.9132 6.68316 78.4043 7.39024 77.1796L44.0682 13.8463C44.7758 12.6236 46.0814 11.8707 47.4941 11.8707C48.9068 11.8707 50.2124 12.6236 50.92 13.8463L87.598 77.1796C88.3047 78.4037 88.3051 79.9117 87.599 81.1362C86.8929 82.3606 85.5874 83.1156 84.174 83.1171H84.178ZM43.5417 63.3254V71.2421H47.2348H47.4921H47.7494H51.4505V63.3254H43.5417ZM43.5417 35.6171V55.4087H51.4584V35.6171H43.5417Z" fill="#2E3A59"/>
</svg>
